<?xml version="1.0" encoding="utf-8"?>
<!-- Generator: Adobe Illustrator 22.1.0, SVG Export Plug-In . SVG Version: 6.00 Build 0)  -->
<svg version="1.1" id="圖層_1" xmlns="http://www.w3.org/2000/svg" xmlns:xlink="http://www.w3.org/1999/xlink" x="0px" y="0px"
	 viewBox="0 0 200 200" style="enable-background:new 0 0 200 200;" xml:space="preserve">
<path d="M147.8,129.4c-2.4-1.9-4.6-4-6.6-6.2c1.8-1.3,2.8-3.2,2.8-5.2c0-3.7-3.4-6.8-7.6-6.8s-7.6,3-7.6,6.8c0,2.1,1.1,4,2.8,5.2
	c-2,2.3-4.2,4.4-6.6,6.2c-9.7,7.5-26.2,14.9-34,17.9v-40.7c0-1-0.9-1.8-2-1.8H51l2.8-12.2c0.1-0.5,0-1.1-0.4-1.5s-1-0.7-1.6-0.7h-2
	l4-17.1c0.1-0.5,0-1.1-0.4-1.5s-1-0.7-1.6-0.7h-1.3l3.3-14.5c0.2-1-0.5-1.9-1.6-2.1c-0.1,0-0.3,0-0.4,0h-2l4-17.1
	c0.2-1-0.5-1.9-1.6-2.1c-0.1,0-0.3,0-0.4,0h-6.4V22.8c0-4.6-3.7-8.4-8.5-9.2V1.5c0-1-1-1.8-2.1-1.7c-1.1,0-1.9,0.8-2,1.7v12.1
	c-4.9,0.8-8.5,4.7-8.5,9.2v12.5h-6.4c-0.1,0-0.3,0-0.4,0c-0.5,0.1-0.9,0.3-1.2,0.6c-0.1,0.1-0.1,0.2-0.2,0.2
	c-0.3,0.4-0.3,0.8-0.3,1.3l0.7,3l3.1,14.1h-1.8c-1.1,0-2,0.8-2,1.8c0,0.1,0,0.2,0,0.3L19,71.2h-1.2c-1.1,0-2,0.8-2,1.8
	c0,0.1,0,0.2,0,0.3l3.8,17.1h-1.8c-1.1,0-2,0.8-2,1.8c0,0.1,0,0.2,0,0.3l3.8,17.1h-1.8c-1.1,0-2,0.8-2,1.8c0,0.1,0,0.2,0,0.3
	l3.8,17.1h-1.8c-1.1,0-2,0.8-2,1.8c0,0.1,0,0.2,0,0.3l2.8,12.9H11c-1.1,0-2,0.8-2,1.8V158c0,1,0.9,1.8,2,1.8h9.5l-6.1,34.5l-0.7,4.1
	l0,0c-0.2,1,0.6,1.9,1.7,2.1c0.1,0,0.2,0,0.3,0h38.2c0.6,0,1.2-0.2,1.6-0.6l0,0h137c1.1,0,2-0.8,2-1.8c0-0.1,0-0.3-0.1-0.4
	l-8.9-31.8c-0.2-0.8-1-1.4-2-1.4h-6.6v-6.3c0-1-0.9-1.8-2-1.8h-30.8v-2.9h9.4c1.1,0,2-0.8,2-1.8c0-0.5-0.2-1-0.7-1.3
	c-2.2-1.8-4.2-3.7-6.1-5.7h1l15.1,7.7c0.3,0.2,0.7,0.2,1,0.2h24.7c1,0,1.9-0.7,2-1.6c0.1-0.9-0.5-1.7-1.5-2
	c-0.9-0.2-1.7-0.5-2.6-0.8c-1.1-0.3-2.4-0.8-3.9-1.3C174.8,143.3,156.7,136.3,147.8,129.4 M166.4,148.7l-15.1-7.7
	c-0.3-0.2-0.7-0.2-1-0.2h-4.6c-0.1-0.1-0.2-0.2-0.3-0.3c-1-1.3-1.9-2.4-2.6-3.3c-1.6-1.9-2.7-3.2-3.5-5.1c-0.3-0.7-1.1-1.2-2-1.2
	s-1.6,0.6-1.9,1.3c-0.8,2.4-2.3,4.2-4.9,7.7l-0.7,0.9h-2.2c-0.4,0-0.7,0.1-1,0.2l-15.1,7.7H97.2c8.9-3.8,21.9-10.1,30.3-16.6
	c2.9-2.2,5.5-4.8,7.8-7.5c0.3,0,0.6,0.1,1,0.1c0.3,0,0.6,0,1-0.1c2.3,2.7,4.9,5.2,7.8,7.5c8.5,6.5,23.8,12.8,34.2,16.6L166.4,148.7
	L166.4,148.7z M142.1,149.7c-1.1,0-2,0.8-2,1.8v6.5c0,1,0.9,1.8,2,1.8h30.8v4.4h-13c-1.1,0-2,0.8-2,1.8v30h-4.7v-15.4
	c0-7.8-7.2-14.2-16-14.2s-16,6.4-16,14.2V196h-5.4v-30c0-1-0.9-1.8-2-1.8h-12.3v-4.4h31.4c1.1,0,2-0.8,2-1.8v-6.5c0-1-0.9-1.8-2-1.8
	H127c2.3-2,4.4-4.2,6.2-6.5l0.9-1.2c1.5-2,2.8-3.6,3.7-5c0.6,0.8,1.2,1.5,1.9,2.4c0.8,0.9,1.6,1.9,2.5,3.2c1.9,2.5,4.1,5,6.5,7.2
	L142.1,149.7L142.1,149.7z M182,168l7.9,28.2h-28V168H182z M24.6,159.8H45l6.5,37H18.1L24.6,159.8L24.6,159.8z M13,147.7h43.9v8.5
	H13V147.7z M34.8,17c3.6,0,6.5,2.6,6.5,5.8v12.5h-13V22.8C28.3,19.6,31.2,17,34.8,17 M26.3,38.9h23l-3.6,15.6h-22l-3.4-15.6
	C20.3,38.9,26.3,38.9,26.3,38.9z M22.1,58.2h27.2l-3.6,15.6h-22l-3.4-15.6C20.3,58.2,22.1,58.2,22.1,58.2z M22.1,77.5h25.3
	c0.6,0,1.1-0.2,1.5-0.6l-3.1,13.6H23.7l-2.9-13.4C21.1,77.3,21.6,77.5,22.1,77.5 M22.1,94.1h27.2l-3.6,15.6h-22l-3.4-15.6H22.1z
	 M119.3,152.1c0.3,0.7,1.1,1.2,1.9,1.2h9.4v2.9H99.2c-1.1,0-2,0.8-2,1.8v6.3h-6.3v-12h21.2c0.4,0,0.7-0.1,1-0.2l12.1-6.1
	c-1.6,1.5-3.3,2.9-5.2,4.1C119.3,150.6,119.1,151.4,119.3,152.1 M90.9,170.1l0.6-2.1h20.1v28.2H90.9V170.1L90.9,170.1z M86.8,196.2
	H55.5l-1.6-8.8h24.3c1.1,0,2-0.8,2-1.8s-0.9-1.8-2-1.8l0,0H53.3l-1.1-6.1h26c1.1,0,2-0.8,2-1.8s-0.9-1.8-2-1.8l0,0H51.6l-1.1-6.1
	h27.7c1.1,0,2-0.8,2-1.8s-0.9-1.8-2-1.8H49.9l-0.8-4.5H59c1,0,1.9-0.7,2-1.5h17.3c1.1,0,2-0.8,2-1.8s-0.9-1.8-2-1.8H61v-6.1h17.2
	c1.1,0,2-0.8,2-1.8s-0.9-1.8-2-1.8H60.7c-0.4-0.6-1-0.9-1.8-0.9h-8.2l1.2-5.1h26.2c1.1,0,2-0.8,2-1.8s-0.9-1.8-2-1.8l0,0H52.9l1-4.1
	c0.1-0.5,0-1.1-0.4-1.5c-0.2-0.2-0.4-0.3-0.6-0.4h25.4c1.1,0,2-0.8,2-1.8s-0.9-1.8-2-1.8H50.6l1.4-6.1h26.2c1.1,0,2-0.8,2-1.8
	s-0.9-1.8-2-1.8H52.9l0.9-4c0.2-1-0.5-1.9-1.6-2.1c-0.1,0-0.3,0-0.4,0h-2l0.3-1.3h36.6C86.8,108.4,86.8,196.2,86.8,196.2z
	 M20.3,113.4h29L45.7,129h-22L20.3,113.4z M22.1,132.6h27.2L46.7,144H22.8l-2.5-11.4H22.1z M125.1,196.2v-15.4
	c0-5.8,5.4-10.6,11.9-10.6c6.6,0,11.9,4.7,11.9,10.6v15.4C149,196.2,125.1,196.2,125.1,196.2z M132.8,118c0-1.7,1.6-3.1,3.5-3.1
	s3.5,1.4,3.5,3.1s-1.6,3.1-3.5,3.1C134.4,121.1,132.8,119.7,132.8,118"/>
</svg>
