<?xml version="1.0" encoding="utf-8"?>
<!-- Generator: Adobe Illustrator 22.1.0, SVG Export Plug-In . SVG Version: 6.00 Build 0)  -->
<svg version="1.1" id="Capa_1" xmlns="http://www.w3.org/2000/svg" xmlns:xlink="http://www.w3.org/1999/xlink" x="0px" y="0px"
	 viewBox="0 0 512.1 512.1" style="enable-background:new 0 0 512.1 512.1;" xml:space="preserve">
<g>
	<path d="M491.4,173.8c0-10.8-7.3-26.5-41.8-39.4l-1.3-0.5l-2.7-20.5C437.5,59.6,392,20.3,337.5,20c-54.6,0-105.1,43.3-110.4,94.5
		l-1.8,19.9L224,135c-33.3,12.9-40.3,28.2-40.3,38.8c0,6.4,2.4,12.4,7.1,18l3.1,3.8h-34.3v-51.1c0-4.1-3.4-7.5-7.5-7.5h-48.8
		c-14.9,0-27,12.1-27,27v177.9h-12c-23,0-36.7,17.4-36.7,46.5v78c0,4.1,3.4,7.5,7.5,7.5h41.3l0,2.3c0,2,0.8,3.9,2.2,5.3
		c1.4,1.4,3.3,2.2,5.3,2.2h273.2c4.1,0,7.5-3.4,7.5-7.5v-2.3h41.3c4.1,0,7.5-3.4,7.5-7.5v-78c0-29.1-13.7-46.5-36.7-46.5h-12V229.2
		l2.1-0.1c34.5-2.3,65.7-8.6,87.8-17.7C471.3,204.5,491.4,192.3,491.4,173.8z M76.4,381H56.9v14.9h19.5V459H42.6v-70.6
		c0-13.2,2.9-22.4,8.7-27.3c4.9-4.2,10.4-4.2,13.1-4.2h12V381z M394.6,54.8c20.4,15.5,33.6,37.5,36.2,60.4l0,0.3l5.6,42.8l-2.2,0.4
		c-5.9,1-11.9,1.9-17.9,2.6l-2.1,0.3l-5-24.7l-4.9-30.7c-2.6-22.3-6.7-37.7-13.1-48.3l-6-10.1L394.6,54.8z M330.2,44.7L330.2,44.7
		c2.6-1.2,5.6-2.5,8.7-4l1-0.5l1,0.5c3.1,1.5,6,2.8,8.8,4c23.6,10.7,34.4,15.5,40,63.5l5,31.3l3.8,19.1v4.8l-2.1,0.2
		c-18.9,1.8-38,2.8-56.9,2.8c-0.6,0-1.3,0-1.9,0c-18.1,0.1-36.5-0.7-54.6-2.4l-2.5-0.2l5-24.7l5-31.3
		C295.8,60.2,306.6,55.3,330.2,44.7z M242,115.9c2.7-26.6,21.1-52.6,48.1-67.9l10.9-6.2l-8,9.6c-9,10.8-14.4,27.6-17.5,54.3l0,0.1
		l-4.9,30.7l-5.1,25.6l-2.1-0.3c-7.7-1-15.5-2.1-23-3.3l-2.1-0.3L242,115.9z M218.6,210.5l0.4,0.2c20.3,8.7,47.9,14.8,79.7,17.6
		l2.1,0.2v91.6c0,17.4-14.2,31.6-31.6,31.6h-21.8l0-2.3c0-4.1-3.4-7.5-7.5-7.5h-39c-4.1,0-7.5,3.4-7.5,7.5v2.3h-21.8
		c-17.4,0-31.6-14.2-31.6-31.6V210.5H218.6z M232.5,356.9V381h-24.1v-24.1H232.5z M91.4,164c0-6.6,5.4-12,12-12h41.3v43.6l-2.3,0
		c-17.9,0-34.6,7.1-47.1,19.9l-3.9,4V164z M349.6,468.8H91.4V261.6c0-20.3,12-38.6,30.6-46.8l3.2-1.4v106.7
		c0,25.6,20.9,46.5,46.5,46.5h21.8v21.8c0,4.1,3.4,7.5,7.5,7.5h39c4.1,0,7.5-3.4,7.5-7.5v-21.8h21.8c25.6,0,46.5-20.9,46.5-46.5
		v-90.6l2.4,0.1c6.5,0.3,13,0.4,19.4,0.4h1.1l0.7,0.9c6.6,8.8,10.2,19.7,10.2,30.6V468.8z M376.6,356.9c2.6,0,8.1,0,13.1,4.2
		c5.8,5,8.7,14.2,8.7,27.3V459h-33.8v-63.1h19.5V381h-19.5v-24.1L376.6,356.9z M337.6,215.1c-79.5,0-138.9-21.8-138.9-41.3
		c0-6.7,7.9-14.3,21.5-20.9l3.6-1.8l-1.1,12.3c-0.3,3.7,2.2,7.1,5.8,7.9c35.8,6.9,72.5,10.3,109,10c36.5,0.3,73.2-3,109.1-10
		c3.7-0.9,6-4.4,5.6-8.1c0-0.4-0.1-0.8-0.2-1.2l-0.1-0.3l-1.4-10.9l3.8,1.8c14.1,6.7,22.2,14.4,22.2,21.2
		C476.4,193.3,417,215.1,337.6,215.1z"/>
	<rect x="135" y="439.5" width="34.5" height="14.9"/>
	<path d="M286,251.9c0-4.1-3.4-7.5-7.5-7.5H161.5c-4.1,0-7.5,3.4-7.5,7.5v39c0,14.9,12.1,27,27,27h78c14.9,0,27-12.1,27-27V251.9z
		 M271.1,290.9c0,6.6-5.4,12-12,12h-78c-6.6,0-12-5.4-12-12v-31.6h102.1V290.9z"/>
</g>
</svg>
