<?xml version="1.0" encoding="utf-8"?>
<!-- Generator: Adobe Illustrator 16.0.3, SVG Export Plug-In . SVG Version: 6.00 Build 0)  -->
<!DOCTYPE svg PUBLIC "-//W3C//DTD SVG 1.1//EN" "http://www.w3.org/Graphics/SVG/1.1/DTD/svg11.dtd">
<svg version="1.1" id="Capa_1" xmlns="http://www.w3.org/2000/svg" xmlns:xlink="http://www.w3.org/1999/xlink" x="0px" y="0px"
	 width="300px" height="300px" viewBox="0 0 300 300" enable-background="new 0 0 300 300" xml:space="preserve">
<g id="surface1">
	<path d="M144.861,189.955c-2.889-1.671-6.339-1.671-9.229-0.002c-2.889,1.669-4.614,4.656-4.614,7.994v30.286
		c0,3.338,1.725,6.327,4.614,7.995c1.444,0.833,3.029,1.251,4.615,1.251c1.584,0,3.17-0.418,4.614-1.251l26.23-15.146
		c2.891-1.669,4.615-4.655,4.615-7.992c0-3.336-1.725-6.324-4.615-7.992L144.861,189.955z M140.732,227.395v-28.607l24.773,14.304
		L140.732,227.395z"/>
	<path d="M261.927,233.492c-2.683,0-4.857,2.175-4.857,4.857v17.487c0,3.749-3.051,6.801-6.801,6.801H60.825
		c-3.751,0-6.8-3.052-6.8-6.801v-92.293H257.07v75.335c0,2.684,2.175,4.857,4.857,4.857s4.857-2.174,4.857-4.857V119.826
		c0-2.683-2.175-4.857-4.857-4.857H90.682l165.091-44.236c1.243-0.333,2.306-1.147,2.948-2.264c0.644-1.115,0.82-2.439,0.486-3.684
		L249.15,27.249c-0.334-1.247-1.147-2.305-2.265-2.95c-1.114-0.643-2.439-0.82-3.684-0.486L32.998,80.137
		c-1.243,0.332-2.306,1.146-2.949,2.262c-0.644,1.116-0.82,2.442-0.486,3.687l9.888,36.902v35.699c0,2.682,2.175,4.857,4.858,4.857
		v92.293c0,9.105,7.409,16.516,16.515,16.516h189.443c9.108,0,16.516-7.41,16.516-16.516V238.35
		C266.784,235.667,264.61,233.492,261.927,233.492z M91.066,74.634l35.695,20.608L82.36,107.142L46.665,86.533L91.066,74.634z
		 M148.74,59.181l35.695,20.609l-44.403,11.899l-35.695-20.611L148.74,59.181z M206.411,43.728l35.695,20.609l-44.401,11.896
		L162.01,55.625L206.411,43.728z M101.64,124.684l29.146,29.146H84.818l-29.146-29.146H101.64z M161.348,124.684l29.146,29.146
		h-45.968l-29.145-29.146H161.348z M221.054,124.684l29.146,29.146h-45.969l-29.145-29.146H221.054z M69.089,110.698l-16.53,4.429
		c-0.019,0.003-0.038,0.009-0.058,0.015l-4.741,1.271c-0.006-0.006-0.011-0.012-0.017-0.019l-5.713-21.32L69.089,110.698z
		 M49.168,153.829v-21.912l21.91,21.912H49.168z M257.07,146.96l-22.276-22.276h22.276V146.96z M246.741,55.794l-27.06-15.623
		l21.341-5.719L246.741,55.794z"/>
</g>
</svg>
